<?xml version="1.0" encoding="utf-8"?>
<!-- Generator: Adobe Illustrator 22.0.0, SVG Export Plug-In . SVG Version: 6.00 Build 0)  -->
<svg version="1.1" id="Layer_1" xmlns="http://www.w3.org/2000/svg" xmlns:xlink="http://www.w3.org/1999/xlink" x="0px" y="0px"
	 viewBox="0 0 27.8 28.1" style="enable-background:new 0 0 27.8 28.1;" xml:space="preserve">
<style type="text/css">
	.st0{fill:#1A31FF;}
</style>
<g>
	<path class="st0" d="M17.1,15.4l-3,4.5c-0.2,0.3-0.7,0.3-0.9,0l-3.1-4.5c-0.5-0.7-0.7-1.6-0.7-2.4c0-2.4,1.9-4.3,4.3-4.3
		S18,10.6,18,13C17.9,13.8,17.6,14.6,17.1,15.4z M10.5,15l3,4.4l3-4.4c0.5-0.7,0.7-1.3,0.7-2.2c0-2-1.7-3.7-3.7-3.7
		s-3.7,1.7-3.7,3.7C9.9,13.7,10.1,14.4,10.5,15z M13.6,10.9c-1.1,0-2.1,0.9-2.1,2.1c0,1.1,0.9,2.1,2.1,2.1c1.1,0,2.1-0.9,2.1-2.1
		C15.7,11.8,14.7,10.9,13.6,10.9z M13.6,11.4c0.8,0,1.5,0.7,1.5,1.5s-0.7,1.5-1.5,1.5s-1.5-0.7-1.5-1.5
		C12.1,12.1,12.8,11.4,13.6,11.4z"/>
</g>
</svg>
