<?xml version="1.0" encoding="utf-8"?>
<!-- Generator: Adobe Illustrator 22.0.0, SVG Export Plug-In . SVG Version: 6.00 Build 0)  -->
<svg version="1.1" id="Layer_1" xmlns="http://www.w3.org/2000/svg" xmlns:xlink="http://www.w3.org/1999/xlink" x="0px" y="0px"
	 viewBox="0 0 9.2 10.6" style="enable-background:new 0 0 9.2 10.6;" xml:space="preserve">
<style type="text/css">
	.st0{fill:#1A31FF;}
</style>
<g>
	<path class="st0" d="M6.4,0.1l2.3,2.3c0.1,0.1,0.2,0.3,0.2,0.4v5.8c0,1.1-0.9,2-2,2H2.2c-1.1,0-2-0.9-2-2V2c0-1.1,0.9-2,2-2h3.8
		C6.1,0,6.2,0,6.4,0.1z M8.3,8.6V3.3H6.1c-0.3,0-0.5-0.2-0.5-0.5V0.5H2.2c-0.8,0-1.5,0.6-1.5,1.4v6.7c0,0.8,0.7,1.4,1.5,1.4h4.6
		C7.6,10,8.3,9.4,8.3,8.6z M2.5,4.9h3.9c0.1,0,0.2,0,0.2-0.2V4.4c0-0.1,0-0.2-0.2-0.2H2.6c-0.1,0-0.2,0-0.2,0.2v0.3
		C2.4,4.8,2.4,4.9,2.5,4.9z M2.5,6.7h3.9c0.1,0,0.2,0,0.2-0.2V6.2c0-0.1,0-0.2-0.2-0.2H2.6C2.4,6,2.4,6,2.4,6.2v0.4
		C2.4,6.7,2.4,6.7,2.5,6.7z M2.5,8.6h3.9c0.1,0,0.2,0,0.2-0.2V8.1c0-0.1,0-0.2-0.2-0.2H2.6c-0.1,0-0.2,0-0.2,0.2v0.3
		C2.4,8.6,2.4,8.6,2.5,8.6z M8.2,2.8L6,0.6v2.1L8.2,2.8L8.2,2.8z"/>
</g>
</svg>
