<?xml version="1.0" encoding="utf-8"?>
<!-- Generator: Adobe Illustrator 22.0.0, SVG Export Plug-In . SVG Version: 6.00 Build 0)  -->
<svg version="1.1" id="Layer_1" xmlns="http://www.w3.org/2000/svg" xmlns:xlink="http://www.w3.org/1999/xlink" x="0px" y="0px"
	 viewBox="0 0 27.8 28.1" style="enable-background:new 0 0 27.8 28.1;" xml:space="preserve">
<style type="text/css">
	.st0{fill:#1A31FF;}
</style>
<g>
	<path class="st0" d="M13.2,9.1h1.9c1.1,0,1.4,0.5,1.8,1.5h0.7c1,0,1.9,0.8,1.9,1.9v4.3c0,1-0.8,1.9-1.9,1.9h-6.8
		c-1,0-1.9-0.8-1.9-1.9v-4.3c0-1,0.8-1.9,1.9-1.9h0.7C11.8,9.6,12,9.1,13.2,9.1z M15.1,9.7h-1.9c-1,0-1.1,0.7-1.3,1.5h-1.1
		c-0.7,0-1.3,0.6-1.3,1.3v4.3c0,0.7,0.6,1.3,1.3,1.3h6.8c0.7,0,1.3-0.6,1.3-1.3v-4.3c0-0.7-0.6-1.3-1.3-1.3h-1.1
		C16.1,10.3,16.1,9.7,15.1,9.7z M14.1,11.8c-1.5,0-2.7,1.2-2.7,2.7s1.2,2.7,2.7,2.7s2.7-1.2,2.7-2.7C16.8,13,15.6,11.8,14.1,11.8z
		 M14.1,12.4c1.2,0,2.1,0.9,2.1,2.1s-0.9,2.1-2.1,2.1S12,15.7,12,14.5S13,12.4,14.1,12.4z"/>
</g>
</svg>
