<?xml version="1.0" encoding="utf-8"?>
<!-- Generator: Adobe Illustrator 22.0.0, SVG Export Plug-In . SVG Version: 6.00 Build 0)  -->
<svg version="1.1" id="Layer_1" xmlns="http://www.w3.org/2000/svg" xmlns:xlink="http://www.w3.org/1999/xlink" x="0px" y="0px"
	 viewBox="0 0 11.1 12.6" style="enable-background:new 0 0 11.1 12.6;" xml:space="preserve">
<style type="text/css">
	.st0{fill:#1A31FF;}
</style>
<g>
	<path class="st0" d="M9,7.8l-3,4.5c-0.2,0.3-0.7,0.3-0.9,0L2,7.8C1.5,7.1,1.3,6.2,1.3,5.4c0-2.4,1.9-4.3,4.3-4.3S9.9,3,9.9,5.4
		C9.8,6.2,9.5,7,9,7.8z M2.4,7.4l3,4.4l3-4.4c0.5-0.7,0.7-1.3,0.7-2.2c0-2-1.7-3.7-3.7-3.7S1.7,3.2,1.7,5.2C1.8,6.1,2,6.8,2.4,7.4z
		 M5.5,3.3c-1.1,0-2.1,0.9-2.1,2.1c0,1.1,0.9,2.1,2.1,2.1c1.1,0,2.1-0.9,2.1-2.1S6.6,3.3,5.5,3.3z M5.5,3.8C6.3,3.8,7,4.5,7,5.3
		S6.3,6.8,5.5,6.8S4,6.1,4,5.3S4.7,3.8,5.5,3.8z"/>
</g>
</svg>
