<?xml version="1.0" encoding="utf-8"?>
<!-- Generator: Adobe Illustrator 22.0.0, SVG Export Plug-In . SVG Version: 6.00 Build 0)  -->
<svg version="1.1" id="Layer_1" xmlns="http://www.w3.org/2000/svg" xmlns:xlink="http://www.w3.org/1999/xlink" x="0px" y="0px"
	 viewBox="0 0 11.1 12.6" style="enable-background:new 0 0 11.1 12.6;" xml:space="preserve">
<style type="text/css">
	.st0{fill:#1A31FF;}
</style>
<g>
	<path class="st0" d="M4.5,3h1.9c1.1,0,1.4,0.5,1.8,1.5h0.7c1,0,1.9,0.8,1.9,1.9v4.3c0,1-0.8,1.9-1.9,1.9H2.1c-1,0-1.9-0.8-1.9-1.9
		V6.4c0-1,0.8-1.9,1.9-1.9h0.7C3.1,3.5,3.3,3,4.5,3z M6.4,3.6H4.5c-1,0-1.1,0.7-1.3,1.5H2.1c-0.7,0-1.3,0.6-1.3,1.3v4.3
		c0,0.7,0.6,1.3,1.3,1.3h6.8c0.7,0,1.3-0.6,1.3-1.3V6.4c0-0.7-0.6-1.3-1.3-1.3H7.8C7.4,4.2,7.4,3.6,6.4,3.6z M5.4,5.7
		c-1.5,0-2.7,1.2-2.7,2.7s1.2,2.7,2.7,2.7s2.7-1.2,2.7-2.7S6.9,5.7,5.4,5.7z M5.4,6.3c1.2,0,2.1,0.9,2.1,2.1s-0.9,2.1-2.1,2.1
		S3.3,9.6,3.3,8.4S4.3,6.3,5.4,6.3z"/>
</g>
</svg>
