<?xml version="1.0" encoding="utf-8"?>
<!-- Generator: Adobe Illustrator 22.0.0, SVG Export Plug-In . SVG Version: 6.00 Build 0)  -->
<svg version="1.1" id="Layer_1" xmlns="http://www.w3.org/2000/svg" xmlns:xlink="http://www.w3.org/1999/xlink" x="0px" y="0px"
	 viewBox="0 0 11.1 12.6" style="enable-background:new 0 0 11.1 12.6;" xml:space="preserve">
<style type="text/css">
	.st0{fill:#1A31FF;}
</style>
<g>
	<path class="st0" d="M7.4,2l2.3,2.3c0.1,0.1,0.2,0.3,0.2,0.4v5.8c0,1.1-0.9,2-2,2H3.2c-1.1,0-2-0.9-2-2V3.9c0-1.1,0.9-2,2-2H7
		C7.1,1.9,7.2,1.9,7.4,2z M9.2,10.5V5.2H7.1C6.8,5.2,6.6,5,6.6,4.7V2.4H3.2C2.4,2.4,1.7,3,1.7,3.8v6.7c0,0.8,0.7,1.4,1.5,1.4h4.6
		C8.6,11.9,9.2,11.3,9.2,10.5z M3.5,6.8h3.9c0.1,0,0.2,0,0.2-0.2V6.3c0-0.1,0-0.2-0.2-0.2H3.5c-0.1,0-0.2,0-0.2,0.2v0.3
		C3.4,6.7,3.4,6.8,3.5,6.8z M3.5,8.6h3.9c0.1,0,0.2,0,0.2-0.2V8.1c0-0.1,0-0.2-0.2-0.2H3.5c-0.2,0-0.2,0-0.2,0.2L3.5,8.6
		C3.4,8.6,3.4,8.6,3.5,8.6z M3.5,10.5h3.9c0.1,0,0.2,0,0.2-0.2V10c0-0.1,0-0.2-0.2-0.2H3.5c-0.1,0-0.2,0-0.2,0.2v0.3
		C3.4,10.5,3.4,10.5,3.5,10.5z M9.1,4.7L7,2.5v2.1L9.1,4.7L9.1,4.7z"/>
</g>
</svg>
