<?xml version="1.0" encoding="utf-8"?>
<!-- Generator: Adobe Illustrator 22.0.0, SVG Export Plug-In . SVG Version: 6.00 Build 0)  -->
<svg version="1.1" id="Layer_1" xmlns="http://www.w3.org/2000/svg" xmlns:xlink="http://www.w3.org/1999/xlink" x="0px" y="0px"
	 viewBox="0 0 9.3 12.5" style="enable-background:new 0 0 9.3 12.5;" xml:space="preserve">
<style type="text/css">
	.st0{fill:#1A31FF;}
</style>
<g>
	<path class="st0" d="M8.1,7.3l-3,4.5c-0.2,0.3-0.7,0.3-0.9,0L1.1,7.3C0.6,6.6,0.4,5.7,0.4,4.9c0-2.4,1.9-4.3,4.3-4.3S9,2.5,9,4.9
		C8.9,5.7,8.6,6.5,8.1,7.3z M1.5,6.9l3,4.4l3-4.4C8,6.2,8.2,5.6,8.2,4.7c0-2-1.7-3.7-3.7-3.7S0.8,2.7,0.8,4.7
		C0.9,5.6,1.1,6.3,1.5,6.9z M4.6,2.8c-1.1,0-2.1,0.9-2.1,2.1C2.5,6,3.4,7,4.6,7c1.1,0,2.1-0.9,2.1-2.1S5.7,2.8,4.6,2.8z M4.6,3.3
		c0.8,0,1.5,0.7,1.5,1.5S5.4,6.3,4.6,6.3S3.1,5.6,3.1,4.8S3.8,3.3,4.6,3.3z"/>
</g>
</svg>
